<svg width="677" height="684" viewBox="0 0 677 684" fill="none" xmlns="http://www.w3.org/2000/svg">
<path d="M508.913 230.312H671.623" stroke="#263238" stroke-linecap="round" stroke-linejoin="round"/>
<path d="M375.212 1V132.845" stroke="#263238" stroke-linecap="round" stroke-linejoin="round"/>
<path d="M143.216 230.312H45.484" stroke="#263238" stroke-linecap="round" stroke-linejoin="round"/>
<path d="M514.099 161.424L576.542 98.9808" stroke="#263238" stroke-linecap="round" stroke-linejoin="round"/>
<path d="M551.011 100.538L582.225 69.3082" stroke="#263238" stroke-linecap="round" stroke-linejoin="round"/>
<path d="M1 446.635L63.4433 384.175" stroke="#263238" stroke-linecap="round" stroke-linejoin="round"/>
<path d="M37.896 385.733L69.126 354.503" stroke="#263238" stroke-linecap="round" stroke-linejoin="round"/>
<path d="M519.781 131.751L539.662 111.87" stroke="#263238" stroke-linecap="round" stroke-linejoin="round"/>
<path d="M428.494 69.2751L432.453 82.0653C432.68 82.8845 433.08 83.6455 433.626 84.2971C434.172 84.9487 434.851 85.4757 435.618 85.8427L446.37 90.6141L435.684 95.3359C434.919 95.7046 434.24 96.2322 433.695 96.8836C433.149 97.5349 432.749 98.295 432.52 99.1133L428.56 111.904L424.6 99.1133C424.374 98.2961 423.977 97.5365 423.434 96.8851C422.891 96.2338 422.216 95.7056 421.453 95.3359L410.684 90.6141L421.386 85.8758C422.151 85.5088 422.828 84.9815 423.371 84.3297C423.914 83.678 424.311 82.917 424.534 82.0984L428.494 69.2751Z" fill="white"/>
<path d="M479.224 125.042L483.051 137.053C483.277 137.827 483.665 138.545 484.191 139.156C484.717 139.768 485.368 140.259 486.099 140.599L496.454 145.039L486.132 149.495C485.399 149.833 484.748 150.324 484.222 150.936C483.696 151.548 483.308 152.266 483.084 153.041L479.257 165.052L475.43 153.041C475.203 152.265 474.812 151.546 474.284 150.934C473.755 150.322 473.1 149.832 472.365 149.495L462.027 145.039L472.365 140.599C473.098 140.26 473.751 139.768 474.28 139.157C474.808 138.545 475.2 137.828 475.43 137.053L479.224 125.042Z" fill="white"/>
<path opacity="0.7" d="M502.551 73.8809L503.81 77.8405C503.887 78.0965 504.016 78.3335 504.19 78.5361C504.364 78.7388 504.579 78.9026 504.821 79.0168L508.234 80.4748L504.821 81.9493C504.579 82.0635 504.364 82.2273 504.19 82.4299C504.016 82.6326 503.887 82.8696 503.81 83.1256L502.551 87.0852L501.292 83.1256C501.218 82.8682 501.09 82.6298 500.915 82.4268C500.741 82.2237 500.525 82.0608 500.281 81.9493L496.868 80.4748L500.281 79.0168C500.525 78.9052 500.741 78.7424 500.915 78.5393C501.09 78.3363 501.218 78.0979 501.292 77.8405L502.551 73.8809Z" fill="white"/>
<path d="M595.76 252.513L602.238 273.438C602.608 274.777 603.261 276.022 604.153 277.088C605.044 278.154 606.154 279.016 607.407 279.617L624.903 287.371L607.407 295.108C606.154 295.712 605.044 296.578 604.152 297.647C603.261 298.716 602.608 299.963 602.238 301.304L595.76 322.229L589.282 301.304C588.912 299.963 588.26 298.716 587.368 297.647C586.477 296.578 585.367 295.712 584.113 295.108L566.618 287.371L584.113 279.617C585.366 279.016 586.476 278.154 587.368 277.088C588.259 276.022 588.912 274.777 589.282 273.438L595.76 252.513Z" fill="white"/>
<path d="M519.781 390.687L523.608 402.698C523.835 403.474 524.226 404.193 524.755 404.805C525.284 405.416 525.938 405.907 526.673 406.244L537.012 410.7L526.673 415.14C525.94 415.479 525.287 415.971 524.758 416.582C524.23 417.194 523.838 417.911 523.608 418.686L519.781 430.697L515.954 418.653C515.726 417.88 515.336 417.164 514.81 416.553C514.285 415.942 513.636 415.449 512.906 415.107L502.551 410.667L512.906 406.21C513.637 405.87 514.287 405.378 514.813 404.767C515.338 404.155 515.728 403.439 515.954 402.665L519.781 390.687Z" fill="white"/>
<path d="M584.577 369.033L585.836 372.992C585.913 373.248 586.042 373.485 586.216 373.688C586.391 373.891 586.605 374.054 586.847 374.169L590.26 375.643L586.847 377.101C586.605 377.215 586.391 377.379 586.216 377.582C586.042 377.784 585.913 378.021 585.836 378.277L584.577 382.237L583.318 378.277C583.241 378.021 583.112 377.784 582.938 377.582C582.764 377.379 582.549 377.215 582.307 377.101L578.911 375.577L582.324 374.102C582.565 373.988 582.78 373.824 582.954 373.622C583.128 373.419 583.258 373.182 583.335 372.926L584.577 369.033Z" fill="white"/>
<path d="M332.054 87.0853L334.937 97.1252C335.093 97.7523 335.379 98.3399 335.776 98.8505C336.172 99.3611 336.671 99.7835 337.239 100.091L345.01 103.819L337.239 107.53C336.671 107.837 336.172 108.259 335.776 108.77C335.379 109.281 335.093 109.868 334.937 110.495L332.054 120.535L329.188 110.495C329.031 109.868 328.745 109.281 328.348 108.77C327.952 108.259 327.453 107.837 326.885 107.53L319.114 103.868L326.885 100.141C327.453 99.8332 327.952 99.4108 328.348 98.9002C328.745 98.3896 329.031 97.802 329.188 97.1749L332.054 87.0853Z" fill="white"/>
<path d="M223.519 426.936C223.519 426.936 194.907 391.83 192.886 380.199L170.818 391.797L90.3822 391.167C86.3326 384.312 82.6333 377.256 79.2985 370.027C76.1175 362.323 74.8087 348.936 92.8508 345.308C92.8508 345.308 103.471 326.321 107.298 311.112C111.125 295.903 105.243 278.955 110.893 267.672C116.542 256.39 118.912 253.391 128.405 247.791C137.898 242.191 158.591 227.91 167.952 222.012C177.65 215.826 188.152 211.003 199.165 207.681C209.437 204.815 289.011 161.291 289.011 161.291L292.59 167.206L291.977 161.291L303.425 169.078C303.425 169.078 311.924 170.553 327.995 164.854C344.065 159.154 376.356 140.731 397.976 150.572C419.597 160.413 452.036 194.725 461.877 204.931C471.719 215.136 492.561 236.094 497.73 251.552C502.899 267.009 513.767 276.254 519.268 282.351C524.768 288.448 551.028 309.24 533.251 335.765C515.474 362.29 449.087 341.862 449.087 341.862C449.087 341.862 452.103 326.172 458.431 315.967C455.264 309.029 451.246 302.512 446.47 296.566C438.467 286.625 410.816 255.346 394.944 247.89C379.073 240.435 315.967 387.771 315.967 387.771L303.11 383.049L300.923 402.93C300.923 402.93 235.166 418.752 223.519 426.936Z" fill="#BA68C8"/>
<path opacity="0.2" d="M380.315 187.568C399.716 185.215 419.266 194.195 433.332 207.697C447.397 221.2 456.642 239.06 463.965 257.185C469.186 270.137 473.548 283.42 477.02 296.947C489.794 293.385 505.102 292.391 517.942 295.638C509.095 298.107 500.049 298.753 489.926 302.762C499.718 302.845 509.675 304.27 518.423 308.677C527.17 313.084 534.56 320.804 536.945 330.298C537.161 331.209 536.846 332.634 535.951 332.352L523.26 350.195L449.104 347.23C449.104 347.23 446.884 333.976 458.448 316.182C452.908 304.767 445.675 294.255 436.993 285.002C421.916 268.517 397.96 250.839 397.96 250.839L380.315 187.568Z" fill="black"/>
<path opacity="0.2" d="M83.6723 380.199C83.6723 380.199 70.4182 355.033 102.51 347.23C102.51 347.23 111.854 339.592 114.77 329.005C117.686 318.419 118.083 260.233 161.159 252.529C204.235 244.825 224.895 235.647 235.398 206.968C245.902 178.29 307.385 201.617 307.385 201.617L334.39 340.917L300.923 403.013L223.519 426.936C223.519 426.936 193.698 388.682 186.044 364.377C178.389 340.072 122.374 382.022 122.374 382.022L94.3419 394.033L83.6723 380.199Z" fill="black"/>
<path d="M425.959 395.458L405.846 394.547L399.981 380.845L397.247 383.612L392.592 364.576C392.592 364.576 419.415 357.584 438.799 343.701C461.911 330.447 502.882 311.858 531.213 328.376C531.213 328.376 530.434 339.874 529.556 347.031C528.678 354.188 526.325 365.255 505.765 376.289L435.088 391.714" fill="#FFA8A7"/>
<path d="M254.517 114.621L227.761 93.265L197.591 120.27L161.142 140.996L170.304 182.78C170.304 182.78 190.285 207.432 199.165 217.174C208.045 226.916 206.852 227.545 217.936 232.085C229.02 236.624 255.28 238.397 255.28 238.397C259.917 236.83 264.362 234.746 268.534 232.184C275.426 227.96 277.381 214.424 277.381 214.424L287.735 205.146L289.16 188.496C292.018 181.073 293.09 173.082 292.292 165.168L277.132 144.707C277.132 144.707 282.102 145.088 283.61 140.98C285.118 136.871 286.128 126.732 286.128 126.732C286.128 126.732 286.294 121.761 278.971 111.688C271.648 101.615 271.019 98.0364 261.592 100.505C252.165 102.974 254.517 114.621 254.517 114.621Z" fill="#FFA8A7"/>
<path d="M300.923 373.174C298.968 369.314 278.474 342.524 271.102 336.328C271.102 336.328 230.859 319.495 221.979 321.931L195.984 329.817C195.984 329.817 165.268 338.879 157.879 342.74C150.489 346.6 138.196 349.599 124.296 352.863C110.396 356.126 93.7289 358.247 91.2769 369.811C88.8249 381.375 87.1681 399.931 90.7633 411.81C90.7633 411.81 90.6142 423.656 92.652 426.87C94.6898 430.084 110.876 431.658 125.423 424.468C139.969 417.277 158.227 405.581 170.801 391.879L204.301 376.538L225.574 393.967L237.685 396.419L248.454 389.162L255.843 393.967H262.238L263.994 384.855L248.454 365.189L280.462 384.855L286.874 380.199L284.803 368.27L296.4 380.199C296.4 380.199 302.878 377.051 300.923 373.174ZM261.873 351.073L270.306 353.476L278.772 363.93L261.873 351.073Z" fill="#FFA8A7"/>
<path d="M244.345 178.257C246.416 180.908 247.029 183.923 245.687 184.884C244.345 185.845 241.595 184.619 239.507 181.951C237.42 179.284 236.823 176.285 238.165 175.324C239.507 174.363 242.257 175.589 244.345 178.257Z" fill="#263238"/>
<path d="M209.603 197.906C211.674 200.573 212.287 203.572 210.945 204.616C209.603 205.659 206.852 204.334 204.765 201.667C202.677 198.999 202.081 196.001 203.423 194.957C204.765 193.913 207.515 195.238 209.603 197.906Z" fill="#263238"/>
<path d="M254.517 211.21C254.517 211.21 262.801 205.709 259.488 191.991" stroke="#263238" stroke-linecap="round" stroke-linejoin="round"/>
<path d="M226.518 170.288C228.22 167.069 230.774 164.379 233.9 162.513C237.026 160.646 240.605 159.673 244.246 159.701" stroke="#263238" stroke-width="2" stroke-linecap="round" stroke-linejoin="round"/>
<path d="M205.428 184.768C202.473 185.895 199.81 187.671 197.633 189.965C195.457 192.259 193.823 195.012 192.853 198.022" stroke="#263238" stroke-width="2" stroke-linecap="round" stroke-linejoin="round"/>
<path d="M212.767 190.169C220.675 195.531 226.71 203.229 230.03 212.187C233.906 213.413 237.962 213.974 242.025 213.844L242.92 203.489" stroke="#263238" stroke-linecap="round" stroke-linejoin="round"/>
<path d="M153.836 145.039C153.836 145.039 153.836 161.606 162.319 172.441C170.172 182.548 186.375 201.07 188.727 203.771C188.918 203.98 189.095 204.202 189.258 204.434C191.146 207.035 203.423 223.702 210.365 228.904C216.578 233.559 244.444 237.188 254.087 238.265C256.209 238.507 258.352 238.06 260.2 236.989L268.484 232.118C270.475 230.958 271.994 229.134 272.775 226.965L281.39 203.274C281.782 202.213 281.984 201.091 281.986 199.96V185.563C281.988 184.368 281.769 183.183 281.34 182.067L270.986 154.863" stroke="#263238" stroke-linecap="round" stroke-linejoin="round"/>
<path d="M277.381 145.039C277.381 145.039 280.545 152.461 292.292 165.201" stroke="#263238" stroke-linecap="round" stroke-linejoin="round"/>
<path d="M396.435 363.615C396.435 363.615 418.735 355.861 434.425 346.169C450.115 336.477 501.342 311.576 532.174 327.713L531.627 330.646C530.705 335.839 530.311 341.112 530.451 346.385C530.633 355.812 526.375 363.93 506.643 375.643C481.991 378.725 426.97 394.878 426.97 394.878" stroke="#263238" stroke-linecap="round" stroke-linejoin="round"/>
<path d="M204.864 377.747C197.459 379.106 186.309 388.069 182.68 394.679C179.052 401.29 176.915 408.629 173.27 415.223C168.876 423.113 162.452 429.686 154.664 434.259C144.525 440.191 132.199 442.659 123.733 450.827C119.438 455.165 116.196 460.43 114.256 466.218C109.249 480.054 109.68 495.275 115.461 508.806C121.243 522.337 131.944 533.17 145.403 539.116" stroke="#263238" stroke-width="2" stroke-linecap="round" stroke-linejoin="round"/>
<path d="M209.553 326.454C209.553 326.454 169.327 335.483 153.836 344.91C138.345 354.337 96.4128 351.04 90.7467 371.286C85.0806 391.531 90.7467 411.81 90.7467 411.81C90.7467 411.81 89.3385 423.623 92.6354 426.936C95.9324 430.25 129.863 435.436 168.962 393.039C168.962 393.039 192.058 379.006 203.837 378.012" stroke="#263238" stroke-linecap="round" stroke-linejoin="round"/>
<path d="M203.837 331.225C203.837 331.225 214.623 319.479 226.386 322.411C238.149 325.344 265.585 332.352 271.118 336.328C276.652 340.304 300.227 368.469 300.94 373.175C301.652 377.88 296.45 380.199 296.45 380.199L270.306 353.476L254.534 348.505" stroke="#263238" stroke-linecap="round" stroke-linejoin="round"/>
<path d="M259.687 350.112L284.786 368.337L286.857 380.249L280.446 384.904C280.446 384.904 254.401 367.542 244.593 363.367" stroke="#263238" stroke-linecap="round" stroke-linejoin="round"/>
<path d="M245.919 363.93L263.978 384.855L262.221 393.967H255.826L225.557 374.285" stroke="#263238" stroke-linecap="round" stroke-linejoin="round"/>
<path d="M181.289 367.475C183.161 372.81 192.72 373.572 200.408 374.98C208.095 376.389 225.59 393.967 225.59 393.967L237.718 396.419L248.47 389.162" stroke="#263238" stroke-linecap="round" stroke-linejoin="round"/>
<path d="M199.132 328.989C199.132 328.989 190.417 290.303 172.955 268.915" stroke="#263238" stroke-linecap="round" stroke-linejoin="round"/>
<path d="M203.837 326.852C203.837 326.852 212.684 307.351 199.132 279.667" stroke="#263238" stroke-linecap="round" stroke-linejoin="round"/>
<path d="M192.886 209.238C174.794 213.877 151.467 236.045 124.959 249.762C105.359 259.885 109.418 284.637 108.391 303.259C107.364 321.881 92.8342 345.391 92.8342 345.391C92.8342 345.391 79.7127 348.307 77.7742 358.844C75.8358 369.381 88.2947 388.152 88.2947 388.152" stroke="#263238" stroke-linecap="round" stroke-linejoin="round"/>
<path d="M192.886 381.955C192.886 381.955 210.033 417.443 223.553 425.462" stroke="#263238" stroke-linecap="round" stroke-linejoin="round"/>
<path d="M148.899 347.23C148.899 347.23 128.902 338.134 110.793 341.762" stroke="#263238" stroke-linecap="round" stroke-linejoin="round"/>
<path d="M153.836 344.91C148.468 338.813 129.929 334.158 129.929 334.158" stroke="#263238" stroke-linecap="round" stroke-linejoin="round"/>
<path d="M445.144 189.688C445.144 189.688 488.22 225.508 499.817 256.82C508.913 281.44 559.063 304.452 531.379 338.3" stroke="#263238" stroke-linecap="round" stroke-linejoin="round"/>
<path d="M449.087 338.3C450.106 331.325 452.566 324.639 456.311 318.667C462.772 307.683 495.94 305.413 514.148 311.195" stroke="#263238" stroke-linecap="round" stroke-linejoin="round"/>
<path d="M274.664 253.788C274.664 254.706 274.392 255.603 273.882 256.366C273.372 257.129 272.648 257.723 271.8 258.074C270.952 258.425 270.02 258.517 269.12 258.338C268.22 258.159 267.393 257.717 266.744 257.069C266.096 256.42 265.654 255.593 265.475 254.693C265.296 253.794 265.388 252.861 265.739 252.013C266.09 251.166 266.685 250.441 267.447 249.931C268.21 249.422 269.107 249.149 270.025 249.149C271.255 249.149 272.435 249.638 273.305 250.508C274.175 251.378 274.664 252.558 274.664 253.788V253.788Z" fill="#263238"/>
<path d="M279.303 282.384C279.303 283.302 279.03 284.198 278.521 284.961C278.011 285.724 277.287 286.319 276.439 286.67C275.591 287.021 274.658 287.113 273.759 286.934C272.859 286.755 272.032 286.313 271.383 285.664C270.735 285.016 270.293 284.189 270.114 283.289C269.935 282.389 270.027 281.456 270.378 280.609C270.729 279.761 271.323 279.037 272.086 278.527C272.849 278.017 273.746 277.745 274.664 277.745C275.894 277.745 277.074 278.234 277.944 279.104C278.814 279.974 279.303 281.154 279.303 282.384V282.384Z" fill="#263238"/>
<path d="M256.075 131.337L255.246 111.158C255.165 109.441 255.594 107.738 256.479 106.264C257.363 104.79 258.664 103.611 260.217 102.874L263.53 101.333C265.464 100.426 267.665 100.262 269.712 100.873C271.759 101.484 273.51 102.828 274.63 104.647L284.853 121.314C285.838 122.933 286.274 124.828 286.095 126.715L285.085 136.871C284.881 138.904 283.97 140.8 282.511 142.23C281.051 143.659 279.136 144.53 277.099 144.691L273.338 144.989" stroke="#263238" stroke-linecap="round" stroke-linejoin="round"/>
<path d="M289.16 184.768C294.379 176.12 291.944 161.424 291.944 161.424L304.966 170.288C304.966 170.288 306.275 174.297 304.966 183.045" stroke="#263238" stroke-linecap="round" stroke-linejoin="round"/>
<path d="M306.01 170.139C319.602 167.911 332.883 164.08 345.573 158.724C365.023 150.44 379.835 141.294 400.66 152.096C411.91 157.912 421.585 166.328 432.404 172.823" stroke="#263238" stroke-linecap="round" stroke-linejoin="round"/>
<path d="M202.909 155.824C202.909 155.824 162.252 152.941 148.352 139.538C134.452 126.135 135.198 86.9361 135.198 86.9361C136.266 91.5502 137.622 96.093 139.257 100.538C139.621 101.499 140.019 102.443 140.416 103.321C143.399 109.766 143.399 86.9361 143.399 86.9361L145.884 95.8661C145.884 95.8661 160.794 69.5733 171.182 62.6149C181.57 55.6565 225.773 57.1641 247.128 65.5971L267.97 100.555C267.97 100.555 257.864 100.555 256.009 107.281C255.412 115.234 256.009 127.676 256.009 127.676C244.306 122.981 234.429 114.638 227.844 103.885C227.844 103.885 218.549 137.003 202.909 155.824Z" fill="#263238"/>
<path d="M161.557 145.039C161.557 145.039 176.467 167.339 172.392 184.801C172.392 184.801 161.109 168.399 157.978 164.92C152.461 158.823 149.098 132.862 149.098 132.862L161.557 145.039Z" fill="#263238"/>
<path d="M463.12 312.057C468.306 306.755 475.364 303.773 482.223 300.989C488.237 298.521 494.383 296.019 500.878 295.555" stroke="#263238" stroke-linecap="round" stroke-linejoin="round"/>
<path d="M277.381 342.79L304.634 346.998L307.12 385.832L283.776 383.231L286.857 380.199L285.052 369.778L296.433 380.199C297.781 379.588 298.922 378.598 299.719 377.352C300.515 376.105 300.934 374.654 300.923 373.174C301.238 367.641 277.381 342.79 277.381 342.79Z" fill="#263238"/>
<path d="M278.772 363.93L270.29 353.476L261.873 351.073L278.772 363.93Z" fill="#263238"/>
<path d="M274.912 381.955L257.848 377.747L248.437 365.189L274.912 381.955Z" fill="#263238"/>
<path d="M282.599 307.865C282.305 312.518 283.805 317.108 286.791 320.688C289.744 323.577 293.465 325.555 297.51 326.388C298.398 326.728 299.344 326.889 300.294 326.86C301.244 326.832 302.178 326.615 303.044 326.222C304.899 325.095 305.446 322.693 305.827 320.556C307.484 311.162 308.892 300.857 304.17 292.59C302.414 289.541 298.455 277.314 295.025 276.552C284.985 274.349 282.765 301.023 282.599 307.865Z" fill="#263238"/>
<path d="M409.54 209.901L416.764 242.191C418.028 249.596 417.337 257.203 414.759 264.259L416.283 276.055L419.398 293.932C419.398 293.932 414.859 323.356 405.283 336.693C395.706 350.03 394.646 344.977 394.646 344.977L398.291 382.883C385.69 390.483 371.348 394.716 356.64 395.176C333.197 395.475 307.12 385.749 307.12 385.749C306.998 372.769 306.168 359.805 304.634 346.915C302.232 330.331 299.233 312.62 299.233 312.62L290.055 301.023L282.666 291.082L277.381 274.017L281.075 262.785L282.981 260.681C285.209 259.518 287.567 258.623 290.005 258.013C292.888 257.5 304.916 268.915 304.916 268.915L306.275 239.259L309.157 207.78L367.144 189.672L396.319 198.817L409.54 209.901Z" fill="#FFA8A7"/>
<path d="M411.976 219.212C411.976 219.212 417.924 245.157 417.509 248.553C417.095 251.949 414.759 267.689 414.759 267.689L419.232 292.308C419.498 293.771 419.447 295.274 419.083 296.715C417.145 304.419 410.187 330.298 401.207 343.949C390.571 360.119 335.417 352.333 323.936 343.833L312.653 307.302" stroke="#263238" stroke-linecap="round" stroke-linejoin="round"/>
<path d="M365.404 308.809C365.404 308.809 373.506 320.407 385.65 318.452" stroke="#263238" stroke-linecap="round" stroke-linejoin="round"/>
<path d="M299.233 312.62C299.233 312.62 307.964 356.425 307.12 385.849C307.12 385.849 331.109 394.994 354.188 395.292C377.267 395.591 398.324 382.966 398.324 382.966C396.518 371.468 395.624 347.677 395.624 347.677" stroke="#263238" stroke-linecap="round" stroke-linejoin="round"/>
<path d="M306.357 271.681C307.832 279.054 311.328 285.648 312.736 293.004C313.003 295.151 313.72 297.217 314.84 299.068C316.795 301.835 323.389 301.039 326.553 299.846C326.785 299.846 324.052 281.854 323.985 279.485C323.669 272.533 324.722 265.587 327.083 259.04C329.337 253.275 331.507 247.741 330.911 241.429C330.264 234.421 327.249 227.81 324.168 221.548C332.452 226.565 342.005 229.09 351.686 228.821C366.846 227.976 358.413 213.248 358.413 213.248C358.413 213.248 401.77 225.872 426.605 215.352C451.44 204.831 454.389 184.205 448.143 174.512C441.897 164.82 402.731 177.478 405.316 175.705C408.629 173.469 414.345 167.422 412.821 163.015C412.551 162.312 412.121 161.681 411.567 161.173C411.012 160.664 410.347 160.291 409.623 160.082C403.46 158.16 394.033 163.611 388.632 166.063C381.425 169.377 374.334 172.972 366.664 174.976C352.763 178.638 338.3 178.522 324.068 179.002C317.342 179.234 310.665 179.731 303.988 180.361C298.206 180.891 291.761 181.438 287.222 185.497C287.077 185.617 286.944 185.75 286.824 185.894C280.694 193.002 290.486 267.887 290.486 267.887L306.357 271.681Z" fill="#263238"/>
<path d="M293.683 201.236C293.683 201.236 283.461 196.912 276.768 203.208C270.074 209.503 281.489 268.915 281.489 268.915L295.423 268.732L293.683 201.236Z" fill="#263238"/>
<path d="M122.689 628.846H584.577L574.057 597.119C574.057 597.119 523.559 456.99 492.759 412.738L477.434 402.98L464.363 397.181L405.862 394.613L401.025 380.199C401.025 380.199 377.449 395.458 354.205 395.276C330.96 395.093 303.127 383.181 303.127 383.181L300.94 403.062C300.94 403.062 244.726 418.603 234.669 421.022C224.613 423.441 173.005 448.739 173.005 448.739C173.005 448.739 172.176 452.765 170.801 460.718C169.426 468.67 148.65 534.261 148.65 534.261L118.332 628.846H122.689Z" fill="#BA68C8"/>
<path d="M383.065 260.681C383.496 263.596 384.01 266.507 384.606 269.412C385.302 272.725 386.263 276.353 388.947 278.474C391.15 280.131 394.232 280.661 396.154 282.699C397.124 283.893 397.738 285.336 397.925 286.862C398.113 288.389 397.866 289.938 397.214 291.331C395.885 294.104 394.035 296.596 391.763 298.67" stroke="#263238" stroke-linecap="round" stroke-linejoin="round"/>
<path d="M404.073 268.915C404.073 272.228 402.698 275.028 401.008 275.028C399.318 275.028 397.943 272.294 397.943 268.915C397.943 265.535 399.318 262.785 401.008 262.785C402.698 262.785 404.073 265.535 404.073 268.915Z" fill="#263238"/>
<path d="M366.846 270.422C366.846 273.819 365.471 276.552 363.781 276.552C362.091 276.552 360.716 273.819 360.716 270.422C360.716 267.026 362.091 264.309 363.781 264.309C365.471 264.309 366.846 267.042 366.846 270.422Z" fill="#263238"/>
<path d="M369.049 253.341C369.049 253.341 359.374 245.654 347.71 256.82" stroke="#263238" stroke-width="2" stroke-linecap="round" stroke-linejoin="round"/>
<path d="M393.619 252.032C393.619 252.032 404.421 246.002 411.843 253.606" stroke="#263238" stroke-width="2" stroke-linecap="round" stroke-linejoin="round"/>
<path d="M414.759 312.024C414.759 312.024 409.325 341.845 393.619 342.79C377.913 343.734 381.243 328.989 381.243 328.989L369.049 326.852C369.049 326.852 365.885 341.398 355.265 341.398C344.645 341.398 327.779 316.878 324.284 287.553L304.966 268.915C304.966 268.915 312.67 312.289 317.905 326.901L323.936 343.8C323.936 343.8 347.71 358.844 371.816 363.98C396.104 358.893 398.49 348.555 401.174 343.999C403.858 339.443 414.759 312.024 414.759 312.024Z" fill="#263238"/>
<path d="M294.379 198.834C294.508 197.035 295.042 195.289 295.939 193.726C296.837 192.163 298.077 190.822 299.565 189.804C302.548 187.785 305.944 186.455 309.505 185.911C321.815 183.558 334.473 185.812 346.948 187.187C359.423 188.562 372.628 188.959 383.844 183.343C388.253 181.101 392.177 178.011 395.389 174.249C398.602 170.488 401.04 166.13 402.565 161.424" stroke="white" stroke-linecap="round" stroke-linejoin="round"/>
<path d="M310.599 202.528C312.417 201.041 314.503 199.916 316.745 199.215C325.741 196.15 335.665 197.674 344.91 200.176C354.155 202.677 363.135 206.123 372.611 206.803C378.756 207.118 384.916 206.718 390.968 205.61C401.306 203.953 411.711 201.501 420.79 196.249C429.869 190.997 437.49 182.614 439.925 172.442" stroke="white" stroke-linecap="round" stroke-linejoin="round"/>
<path d="M300.923 207.88C299.394 207.753 297.864 208.104 296.543 208.885C295.223 209.665 294.177 210.836 293.551 212.237C292.326 215.054 291.759 218.114 291.894 221.183C291.667 235.651 293.056 250.1 296.036 264.259" stroke="white" stroke-linecap="round" stroke-linejoin="round"/>
<path d="M313.465 309.621C313.465 309.621 307.418 314.824 303.21 314.592C299.631 314.36 286.642 296.583 282.914 291.397C282.269 290.474 281.772 289.457 281.44 288.382L277.944 276.602C277.298 274.466 277.379 272.176 278.176 270.091L280.081 265.121C280.558 263.848 281.287 262.685 282.223 261.7C283.16 260.715 284.285 259.929 285.532 259.388V259.388C287.403 258.578 289.474 258.348 291.477 258.729C293.48 259.11 295.322 260.085 296.765 261.526L306.241 270.986" fill="#FFA8A7"/>
<path d="M313.465 309.621C313.465 309.621 307.418 314.824 303.21 314.592C299.631 314.36 286.642 296.583 282.914 291.397C282.269 290.474 281.772 289.457 281.44 288.382L277.944 276.602C277.298 274.466 277.379 272.176 278.176 270.091L280.081 265.121C280.558 263.848 281.287 262.685 282.223 261.7C283.16 260.715 284.285 259.929 285.532 259.388V259.388C287.403 258.578 289.474 258.348 291.477 258.729C293.48 259.11 295.322 260.085 296.765 261.526L306.241 270.986" stroke="#263238" stroke-linecap="round" stroke-linejoin="round"/>
<path d="M405.299 397.993L401.008 380.199C401.008 380.199 374.599 396.601 356.64 395.259C338.681 393.917 310.582 387.671 303.11 383.181L300.923 403.062C300.923 403.062 324.118 421.751 353.592 420.989C383.065 420.227 405.299 397.993 405.299 397.993Z" stroke="#263238" stroke-linecap="round" stroke-linejoin="round"/>
<path d="M458.431 316.099C442.377 284.14 415.521 264.872 415.521 264.872" stroke="#263238" stroke-linecap="round" stroke-linejoin="round"/>
<path d="M300.923 402.98L240.037 419.299C235.951 420.389 231.953 421.785 228.076 423.474C213.33 429.902 175.606 446.453 172.955 448.739C172.502 449.165 172.139 449.678 171.888 450.248C171.638 450.817 171.505 451.431 171.497 452.053C171.25 459.527 170.042 466.939 167.902 474.104L118.199 628.813" stroke="#263238" stroke-linecap="round" stroke-linejoin="round"/>
<path d="M584.577 628.846C543.291 500.629 509.327 438.534 496.885 418.139C493.792 413.065 489.338 408.961 484.028 406.293L470.443 399.484C466.417 397.48 462.013 396.351 457.52 396.17L405.299 394" stroke="#263238" stroke-linecap="round" stroke-linejoin="round"/>
<path d="M291.314 453.196C288.065 458.96 285.149 464.907 282.583 471.006" stroke="#263238" stroke-linecap="round" stroke-linejoin="round"/>
<path d="M317.739 412.953C309.452 423.999 301.754 435.474 294.677 447.331" stroke="#263238" stroke-linecap="round" stroke-linejoin="round"/>
<path d="M325.129 415.985C325.129 415.985 316.53 440.157 313.531 460.718" stroke="#263238" stroke-linecap="round" stroke-linejoin="round"/>
<path d="M409.259 441.98C411.459 446.265 413.298 450.726 414.759 455.317" stroke="#263238" stroke-linecap="round" stroke-linejoin="round"/>
<path d="M387.887 410.7C394.4 418.181 400.228 426.232 405.299 434.756" stroke="#263238" stroke-linecap="round" stroke-linejoin="round"/>
<path d="M376.786 415.985C376.786 415.985 385.633 441.781 385.6 455.317" stroke="#263238" stroke-linecap="round" stroke-linejoin="round"/>
<path opacity="0.3" d="M559.394 628.862H118.332L148.7 534.261C148.7 534.261 169.476 468.67 170.834 460.734C172.193 452.798 173.038 448.739 173.038 448.739C173.038 448.739 224.679 423.358 234.752 420.922C244.825 418.487 301.023 402.996 301.023 402.996L303.21 383.115C303.21 383.115 331.06 395.027 354.304 395.209C369.844 395.342 385.567 388.582 394.232 384.026L395.69 397.396C389.991 402.648 375.925 414.643 360.036 420.84C361.378 420.541 382.105 415.704 396.485 404.52V405.183C396.485 405.183 463.683 410.617 473.607 418.437C494.946 435.651 544.964 589.978 559.394 628.862Z" fill="black"/>
<path d="M32.4453 628.846H641.653" stroke="#263238" stroke-linecap="round" stroke-linejoin="round"/>
<path d="M622.517 649.737C615.459 643.823 609.114 639.996 604.839 631.397C597.019 615.641 594.402 597.334 592.53 580.038C587.394 532.306 579.441 565.524 579.441 565.524C579.81 576.409 579.255 587.305 577.784 598.096C575.051 619.386 569.235 639.515 548.476 649.456C547.948 649.685 547.496 650.061 547.176 650.54C546.856 651.019 546.68 651.58 546.67 652.156C546.67 657.127 563.95 661.053 585.273 661.053C606.595 661.053 623.875 657.077 623.875 652.156C623.845 651.677 623.707 651.211 623.472 650.792C623.237 650.373 622.91 650.013 622.517 649.737V649.737Z" fill="#BA68C8" stroke="#263238" stroke-linecap="round" stroke-linejoin="round"/>
<path d="M630.95 566.419C622.666 604.309 591.188 629.591 560.538 622.898C550.268 620.583 541.026 615.003 534.195 606.993V606.993C520.643 591.469 514.612 567.231 520.079 542.247C528.363 504.373 559.842 479.091 590.475 485.768C603.729 488.667 614.763 497.15 622.202 508.963C631.927 524.205 635.622 545.047 630.95 566.419Z" stroke="#263238" stroke-linecap="round" stroke-linejoin="round"/>
<path d="M643.409 568.473C633.7 612.808 596.605 642.381 560.571 634.562C548.499 631.861 537.626 625.329 529.573 615.94V615.94C513.635 597.798 506.544 569.434 513.005 540.193C522.714 495.874 559.792 466.284 595.843 474.104C611.516 477.501 624.406 487.358 633.153 501.192C644.502 519.085 648.909 543.473 643.409 568.473Z" fill="#BA68C8" stroke="#263238" stroke-linecap="round" stroke-linejoin="round"/>
<path opacity="0.5" d="M558.45 496.355C558.45 496.355 530.981 517.727 525.431 549.537C519.881 581.346 527.618 608.65 551.293 619.916C574.968 631.182 598.378 620.181 614.962 600.548C631.546 580.916 636.5 548.377 629.492 524.917C621.506 498.177 588.089 478.114 558.45 496.355Z" fill="white"/>
<path d="M630.95 566.419C622.666 604.309 591.188 629.591 560.537 622.898C550.268 620.583 541.026 615.003 534.195 606.993V606.993C524.52 591.701 520.775 570.876 525.447 549.487C533.731 511.613 565.21 486.331 595.86 493.008C606.131 495.327 615.374 500.914 622.202 508.93V508.93C631.927 524.205 635.622 545.047 630.95 566.419Z" stroke="#263238" stroke-linecap="round" stroke-linejoin="round"/>
<path d="M530.998 602.669C530.998 602.669 517.743 578.298 526.259 546.024C534.775 513.751 559.262 495.709 572.648 493.82C586.035 491.931 609.097 491.07 625.4 512.425C625.4 512.425 611.731 483.813 578.248 484.757C544.765 485.702 529.821 514.745 521.488 536.581C513.154 558.417 522.581 590.807 530.998 602.669Z" fill="#263238"/>
<path d="M551.293 546.72L574.968 523.045" stroke="#263238" stroke-linecap="round" stroke-linejoin="round"/>
<path d="M554.523 573.46L578.182 549.802" stroke="#263238" stroke-linecap="round" stroke-linejoin="round"/>
<path d="M554.523 555.534L598.842 511.199" stroke="#263238" stroke-linecap="round" stroke-linejoin="round"/>
<path d="M582.556 654.492C594.187 654.72 605.805 653.608 617.182 651.179Z" fill="#BA68C8"/>
<path d="M582.556 654.492C594.187 654.72 605.805 653.608 617.182 651.179" stroke="#263238" stroke-linecap="round" stroke-linejoin="round"/>
<path d="M558.45 652.819C558.45 652.819 563.42 653.548 571.074 654.062Z" fill="#BA68C8"/>
<path d="M558.45 652.819C558.45 652.819 563.42 653.548 571.074 654.062" stroke="#263238" stroke-linecap="round" stroke-linejoin="round"/>
<path d="M405.481 673.943C405.481 673.943 405.398 660.506 394.58 657.375C376.587 652.239 349.847 653.614 332.07 658.038C324.151 660.009 317.474 670.116 313.084 661.351C308.693 652.587 310.284 647.103 321.666 639.582C333.048 632.06 345.076 637.643 355.265 638.389C382.817 640.393 411.048 641.039 438.716 640.658C462.606 640.327 499.701 638.703 512.574 651.46C515.888 654.774 500.43 683.552 499.32 683.85C498.21 684.148 503.628 659.115 502.004 658.618C475.993 650.599 442.957 648.346 413.235 650.599C413.235 650.599 408.944 676.13 407.602 676.08C406.26 676.03 405.481 673.943 405.481 673.943Z" fill="#263238"/>
<path d="M418.205 672.932C422.066 657.723 419.166 657.408 422.861 648.478" stroke="#263238" stroke-linecap="round" stroke-linejoin="round"/>
<path d="M421.519 672.816C424.998 658.436 422.115 657.458 426.174 648.942" stroke="#263238" stroke-linecap="round" stroke-linejoin="round"/>
<path d="M414.776 673.148C418.967 657.243 415.969 657.458 419.365 648.296" stroke="#263238" stroke-linecap="round" stroke-linejoin="round"/>
<path d="M411.578 673.446C415.919 657.425 412.506 657.673 415.886 648.727" stroke="#263238" stroke-linecap="round" stroke-linejoin="round"/>
<path d="M426.058 672.8C429.156 658.949 426.787 657.309 431.128 648.743" stroke="#263238" stroke-linecap="round" stroke-linejoin="round"/>
<path d="M428.792 672.833C431.724 659.015 430.051 657.127 434.375 648.18" stroke="#263238" stroke-linecap="round" stroke-linejoin="round"/>
<path d="M432.901 672.982C435.436 659.894 433.961 657.127 438.733 648.445" stroke="#263238" stroke-linecap="round" stroke-linejoin="round"/>
<path d="M436.512 673.147C438.733 660.473 437.722 657.06 442.725 648.379" stroke="#263238" stroke-linecap="round" stroke-linejoin="round"/>
<path d="M439.975 673.363C441.897 661.202 440.969 657.093 446.321 648.627" stroke="#263238" stroke-linecap="round" stroke-linejoin="round"/>
<path d="M443.968 673.611C445.625 662.014 444.796 657.044 450.496 648.76" stroke="#263238" stroke-linecap="round" stroke-linejoin="round"/>
<path d="M447.778 673.876C449.12 662.66 448.375 657.16 454.405 649.025" stroke="#263238" stroke-linecap="round" stroke-linejoin="round"/>
<path d="M451.423 674.142C452.583 662.992 452.301 657.11 458.382 648.81" stroke="#263238" stroke-linecap="round" stroke-linejoin="round"/>
<path d="M455.532 674.423C456.526 663.472 456.261 657.176 462.54 648.926" stroke="#263238" stroke-linecap="round" stroke-linejoin="round"/>
<path d="M458.763 674.639C459.674 663.687 459.492 657.193 465.787 648.926" stroke="#263238" stroke-linecap="round" stroke-linejoin="round"/>
<path d="M461.877 674.821C462.756 663.953 462.242 657.326 468.703 649.274" stroke="#263238" stroke-linecap="round" stroke-linejoin="round"/>
<path d="M465.721 675.086C466.599 664.135 466.053 657.458 472.547 649.522" stroke="#263238" stroke-linecap="round" stroke-linejoin="round"/>
<path d="M468.62 675.351C469.499 664.549 468.455 657.756 475.098 650.218" stroke="#263238" stroke-linecap="round" stroke-linejoin="round"/>
<path d="M472.398 675.765C473.276 664.847 472.182 658.038 478.859 650.649" stroke="#263238" stroke-linecap="round" stroke-linejoin="round"/>
<path d="M476.341 676.279C477.219 665.344 475.96 658.452 482.653 651.311" stroke="#263238" stroke-linecap="round" stroke-linejoin="round"/>
<path d="M479.207 676.726C480.085 665.808 478.66 658.866 485.321 651.875" stroke="#263238" stroke-linecap="round" stroke-linejoin="round"/>
<path d="M482.471 677.356C483.316 666.703 481.759 659.777 487.938 653.034" stroke="#263238" stroke-linecap="round" stroke-linejoin="round"/>
<path d="M485.834 678.101C486.696 667.283 485.221 660.275 491.302 653.531" stroke="#263238" stroke-linecap="round" stroke-linejoin="round"/>
<path d="M489.347 679.029C490.241 668.012 488.866 660.805 494.847 654.012" stroke="#263238" stroke-linecap="round" stroke-linejoin="round"/>
<path d="M493.008 680.901C493.919 669.453 494.217 664.334 498.757 655.006" stroke="#263238" stroke-linecap="round" stroke-linejoin="round"/>
<path d="M496.703 682.326C498.923 671.209 497.779 663.853 501.938 656.298" stroke="#263238" stroke-linecap="round" stroke-linejoin="round"/>
</svg>
